<svg xmlns="http://www.w3.org/2000/svg" width="430" height="430" style="width:100%;height:100%;transform:translate3d(0,0,0);content-visibility:visible" viewBox="0 0 430 430"><defs><path id="a" style="display:none"/><path id="b" style="display:none"/><path id="c" fill="#4BB3FD" d="M50-84.5a3 3 0 0 1 3-3h77c8.284 0 15 6.716 15 15v157a3 3 0 0 1-3 3h-284a3 3 0 0 1-3-3v-157c0-8.284 6.716-15 15-15h77a3 3 0 0 1 3 3v1.5c0 5.523 4.477 10 10 10h80c5.523 0 10-4.477 10-10v-1.5z" style="display:block" transform="translate(215 182.5)"/><path id="d" fill="#4BB3FD" d="M50-84.5a3 3 0 0 1 3-3h77c8.284 0 15 6.716 15 15v157a3 3 0 0 1-3 3h-284a3 3 0 0 1-3-3v-157c0-8.284 6.716-15 15-15h77a3 3 0 0 1 3 3v1.5c0 5.523 4.477 10 10 10h80c5.523 0 10-4.477 10-10v-1.5z" style="display:block" transform="translate(215 182.5)"/><path id="e" style="display:none"/><path id="f" style="display:none"/><mask id="p" mask-type="alpha"><use xmlns:ns1="http://www.w3.org/1999/xlink" ns1:href="#a"/></mask><mask id="o" mask-type="alpha"><use xmlns:ns2="http://www.w3.org/1999/xlink" ns2:href="#b"/></mask><mask id="m" mask-type="alpha"><use xmlns:ns3="http://www.w3.org/1999/xlink" ns3:href="#c"/></mask><mask id="l" mask-type="alpha"><use xmlns:ns4="http://www.w3.org/1999/xlink" ns4:href="#d"/></mask><mask id="j" mask-type="alpha"><use xmlns:ns5="http://www.w3.org/1999/xlink" ns5:href="#e"/></mask><mask id="i" mask-type="alpha"><use xmlns:ns6="http://www.w3.org/1999/xlink" ns6:href="#f"/></mask><clipPath id="g"><path d="M0 0h430v430H0z"/></clipPath><clipPath id="n"><path d="M0 0h430v430H0z"/></clipPath><clipPath id="k"><path d="M0 0h430v430H0z"/></clipPath><clipPath id="h"><path d="M0 0h430v430H0z"/></clipPath></defs><g clip-path="url(#g)"><g clip-path="url(#h)" style="display:none"><g style="display:none"><path class="secondary"/><path fill="none" class="secondary"/><path class="secondary"/></g><path class="primary" style="display:none"/><g mask="url(#i)" style="mix-blend-mode:multiply;display:none"><path class="quaternary"/><path fill="none" class="primary"/></g><g mask="url(#j)" style="mix-blend-mode:multiply;display:none"><path class="primary"/></g><path class="tertiary" style="display:none"/><path class="tertiary" style="mix-blend-mode:multiply;display:none"/></g><g clip-path="url(#k)" style="display:block"><g fill="#3A3347" style="display:block"><path d="M165 80v15c0 5.523 4.477 10 10 10h80c5.523 0 10-4.477 10-10V80M55 290V100c0-11.046 8.954-20 20-20h280c11.046 0 20 8.954 20 20v190m-73-9.5v43H141.5v-43H302z" class="secondary"/><path d="M55 290V100c0-11.046 8.954-20 20-20h280c11.046 0 20 8.954 20 20v190" class="secondary"/><path d="M302 280.5v43H141.5v-43H302z" class="secondary"/></g><path fill="#4BB3FD" d="M50-84.5a3 3 0 0 1 3-3h77c8.284 0 15 6.716 15 15v157a3 3 0 0 1-3 3h-284a3 3 0 0 1-3-3v-157c0-8.284 6.716-15 15-15h77a3 3 0 0 1 3 3v1.5c0 5.523 4.477 10 10 10h80c5.523 0 10-4.477 10-10v-1.5z" class="primary" style="display:block" transform="translate(215 182.5)"/><g mask="url(#l)" opacity=".4" style="mix-blend-mode:multiply;display:block"><path fill="#4BB3FD" d="m94.914 95 175 175L421.5 414.5c1.657 0 74.5-35.843 74.5-37.5L360 246.949 222.551 109.5 65.5-50c-5.523 0-1-4.477-1-10l-98 28.5a3 3 0 0 0-3-3L94.914 95zM355 461 175.827 270 70 164.173-94.497-12.407-180 45.5c0 .486 395.368 424.387 446.814 460.048C390.79 591.484 353.829 461 355 461z" class="primary" opacity="1"/></g><g mask="url(#m)" opacity=".5" style="mix-blend-mode:multiply;display:block"><path fill="none" stroke="#4BB3FD" stroke-width="12.6" d="M-235.5 14.5 92 338" class="primary" opacity="1"/></g><path fill="#EBE6EF" d="M-58-27.5a3 3 0 0 1 3 3v7c0 5.523 4.477 10 10 10h90c5.523 0 10-4.477 10-10v-7a3 3 0 0 1 3-3h124a3 3 0 0 1 3 3v22c0 16.569-13.431 30-30 30h-310c-16.569 0-30-13.431-30-30v-22a3 3 0 0 1 3-3h124z" class="tertiary" style="display:block" transform="translate(215 317)"/><g opacity=".5" style="mix-blend-mode:multiply;display:block"><path fill="#EBE6EF" d="M33 289.5h47v5c0 16.569 13.431 30 30 30h288.292c-4.118 11.652-15.23 20-28.292 20H60c-16.569 0-30-13.431-30-30v-22a3 3 0 0 1 3-3z" class="tertiary" opacity="1"/></g></g><g clip-path="url(#n)" style="display:none"><g style="display:none"><path class="secondary"/><path fill="none" class="secondary"/><path class="secondary"/></g><path class="primary" style="display:none"/><g mask="url(#o)" style="mix-blend-mode:multiply;display:none"><path class="primary"/></g><g mask="url(#p)" style="mix-blend-mode:multiply;display:none"><path class="quaternary"/><path fill="none" class="primary"/></g><path class="tertiary" style="display:none"/><path class="tertiary" style="mix-blend-mode:multiply;display:none"/></g></g></svg>